<svg version="1.1" viewBox="0.0 0.0 960.0 540.0" fill="none" stroke="none" stroke-linecap="square" stroke-miterlimit="10" xmlns:xlink="http://www.w3.org/1999/xlink" xmlns="http://www.w3.org/2000/svg"><clipPath id="p.0"><path d="m0 0l960.0 0l0 540.0l-960.0 0l0 -540.0z" clip-rule="nonzero"/></clipPath><g clip-path="url(#p.0)"><path fill="#599191" d="m0 0l960.0 0l0 540.0l-960.0 0z" fill-rule="evenodd"/><path fill="#ffffff" fill-opacity="0.0941" d="m787.5489 467.5812l0 0l0 0c4.4105225 0 8.640381 1.7520752 11.759155 4.8707886c3.1187134 3.1187134 4.8707886 7.3486023 4.8707886 11.759125l0 55.653564c0 1.2207031E-4 -1.2207031E-4 2.4414062E-4 -3.0517578E-4 2.4414062E-4l-33.259583 -2.4414062E-4l0 0c-1.2207031E-4 0 -2.4414062E-4 -1.2207031E-4 -2.4414062E-4 -3.0517578E-4l2.4414062E-4 -55.65326l0 0c0 -9.184448 7.4454956 -16.629913 16.629944 -16.629913z" fill-rule="evenodd"/><path fill="#ffffff" fill-opacity="0.0941" d="m787.5489 504.11795l0 0l0 0c4.4105225 0 8.640381 1.7520752 11.759155 4.8707886c3.1187134 3.118744 4.8707886 7.3486023 4.8707886 11.759125l0 19.118103c0 1.8310547E-4 -1.2207031E-4 3.0517578E-4 -3.0517578E-4 3.0517578E-4l-33.259583 -3.0517578E-4l0 0c-1.2207031E-4 0 -2.4414062E-4 -1.2207031E-4 -2.4414062E-4 -2.4414062E-4l2.4414062E-4 -19.117859l0 0c0 -9.184448 7.4454956 -16.629913 16.629944 -16.629913z" fill-rule="evenodd"/><path fill="#ffffff" fill-opacity="0.0941" d="m835.6546 467.5812l0 0l0 0c4.4105225 0 8.640442 1.7520752 11.759155 4.8707886c3.1187134 3.1187134 4.8707886 7.3486023 4.8707886 11.759125l0 55.653564c0 1.2207031E-4 -1.2207031E-4 2.4414062E-4 -3.0517578E-4 2.4414062E-4l-33.259583 -2.4414062E-4l0 0c-1.2207031E-4 0 -2.4414062E-4 -1.2207031E-4 -2.4414062E-4 -3.0517578E-4l2.4414062E-4 -55.65326l0 0c0 -9.184448 7.4454956 -16.629913 16.629944 -16.629913z" fill-rule="evenodd"/><path fill="#ffffff" fill-opacity="0.0941" d="m835.6546 431.04462l0 0l0 0c4.4105225 0 8.640442 1.7520752 11.759155 4.8707886c3.1187134 3.1187134 4.8707886 7.3486023 4.8707886 11.759125l0 92.188995c0 1.2207031E-4 -1.2207031E-4 2.4414062E-4 -3.0517578E-4 2.4414062E-4l-33.259583 -2.4414062E-4l0 0c-1.2207031E-4 0 -2.4414062E-4 -1.2207031E-4 -2.4414062E-4 -3.0517578E-4l2.4414062E-4 -92.18869l0 0c0 -9.184448 7.4454956 -16.629913 16.629944 -16.629913z" fill-rule="evenodd"/><path fill="#ffffff" fill-opacity="0.0941" d="m835.6546 504.11795l0 0l0 0c4.4105225 0 8.640442 1.7520752 11.759155 4.8707886c3.1187134 3.118744 4.8707886 7.3486023 4.8707886 11.759125l0 19.118103c0 1.8310547E-4 -1.2207031E-4 3.0517578E-4 -3.0517578E-4 3.0517578E-4l-33.259583 -3.0517578E-4l0 0c-1.2207031E-4 0 -2.4414062E-4 -1.2207031E-4 -2.4414062E-4 -2.4414062E-4l2.4414062E-4 -19.117859l0 0c0 -9.184448 7.4454956 -16.629913 16.629944 -16.629913z" fill-rule="evenodd"/><path fill="#ffffff" fill-opacity="0.0941" d="m883.76044 467.5812l0 0l0 0c4.4105225 0 8.640381 1.7520752 11.759094 4.8707886c3.1187134 3.1187134 4.8707886 7.3486023 4.8707886 11.759125l0 55.653564c0 1.2207031E-4 -1.2207031E-4 2.4414062E-4 -2.4414062E-4 2.4414062E-4l-33.259583 -2.4414062E-4l0 0c-1.2207031E-4 0 -3.0517578E-4 -1.2207031E-4 -3.0517578E-4 -3.0517578E-4l3.0517578E-4 -55.65326l0 0c0 -9.184448 7.4454956 -16.629913 16.629944 -16.629913z" fill-rule="evenodd"/><path fill="#ffffff" fill-opacity="0.0941" d="m883.76044 394.50797l0 0l0 0c4.4105225 0 8.640381 1.7520752 11.759094 4.8707886c3.1187134 3.1187134 4.8707886 7.3486023 4.8707886 11.759125l0 128.72443c0 1.2207031E-4 -1.2207031E-4 2.4414062E-4 -2.4414062E-4 2.4414062E-4l-33.259583 -2.4414062E-4l0 0c-1.2207031E-4 0 -3.0517578E-4 -1.2207031E-4 -3.0517578E-4 -3.0517578E-4l3.0517578E-4 -128.72412l0 0c0 -9.184448 7.4454956 -16.629913 16.629944 -16.629913z" fill-rule="evenodd"/><path fill="#ffffff" fill-opacity="0.0941" d="m883.76044 431.04462l0 0l0 0c4.4105225 0 8.640381 1.7520752 11.759094 4.8707886c3.1187134 3.1187134 4.8707886 7.3486023 4.8707886 11.759125l0 92.188995c0 1.2207031E-4 -1.2207031E-4 2.4414062E-4 -2.4414062E-4 2.4414062E-4l-33.259583 -2.4414062E-4l0 0c-1.2207031E-4 0 -3.0517578E-4 -1.2207031E-4 -3.0517578E-4 -3.0517578E-4l3.0517578E-4 -92.18869l0 0c0 -9.184448 7.4454956 -16.629913 16.629944 -16.629913z" fill-rule="evenodd"/><path fill="#ffffff" fill-opacity="0.0941" d="m883.76044 504.11795l0 0l0 0c4.4105225 0 8.640381 1.7520752 11.759094 4.8707886c3.1187134 3.118744 4.8707886 7.3486023 4.8707886 11.759125l0 19.118103c0 1.8310547E-4 -1.2207031E-4 3.0517578E-4 -2.4414062E-4 3.0517578E-4l-33.259583 -3.0517578E-4l0 0c-1.2207031E-4 0 -3.0517578E-4 -1.2207031E-4 -3.0517578E-4 -2.4414062E-4l3.0517578E-4 -19.117859l0 0c0 -9.184448 7.4454956 -16.629913 16.629944 -16.629913z" fill-rule="evenodd"/><path fill="#ffffff" fill-opacity="0.0941" d="m931.86615 467.5812l0 0l0 0c4.4105225 0 8.640381 1.7520752 11.759094 4.8707886c3.1187134 3.1187134 4.8707886 7.3486023 4.8707886 11.759125l0 55.653564c0 1.2207031E-4 -1.2207031E-4 2.4414062E-4 -2.4414062E-4 2.4414062E-4l-33.259583 -2.4414062E-4l0 0c-1.2207031E-4 0 -2.4414062E-4 -1.2207031E-4 -2.4414062E-4 -3.0517578E-4l2.4414062E-4 -55.65326l0 0c0 -9.184448 7.4454956 -16.629913 16.629944 -16.629913z" fill-rule="evenodd"/><path fill="#ffffff" fill-opacity="0.0941" d="m931.86615 394.50797l0 0l0 0c4.4105225 0 8.640381 1.7520752 11.759094 4.8707886c3.1187134 3.1187134 4.8707886 7.3486023 4.8707886 11.759125l0 128.72443c0 1.2207031E-4 -1.2207031E-4 2.4414062E-4 -2.4414062E-4 2.4414062E-4l-33.259583 -2.4414062E-4l0 0c-1.2207031E-4 0 -2.4414062E-4 -1.2207031E-4 -2.4414062E-4 -3.0517578E-4l2.4414062E-4 -128.72412l0 0c0 -9.184448 7.4454956 -16.629913 16.629944 -16.629913z" fill-rule="evenodd"/><path fill="#ffffff" fill-opacity="0.0941" d="m931.86615 431.04462l0 0l0 0c4.4105225 0 8.640381 1.7520752 11.759094 4.8707886c3.1187134 3.1187134 4.8707886 7.3486023 4.8707886 11.759125l0 92.188995c0 1.2207031E-4 -1.2207031E-4 2.4414062E-4 -2.4414062E-4 2.4414062E-4l-33.259583 -2.4414062E-4l0 0c-1.2207031E-4 0 -2.4414062E-4 -1.2207031E-4 -2.4414062E-4 -3.0517578E-4l2.4414062E-4 -92.18869l0 0c0 -9.184448 7.4454956 -16.629913 16.629944 -16.629913z" fill-rule="evenodd"/><path fill="#ffffff" fill-opacity="0.0941" d="m931.86615 357.97116l0 0l0 0c4.4105225 0 8.640381 1.7520752 11.759094 4.8707886c3.1187134 3.1187134 4.8707886 7.3486023 4.8707886 11.759155l0 165.25986c0 1.2207031E-4 -1.2207031E-4 2.4414062E-4 -2.4414062E-4 2.4414062E-4l-33.259583 -2.4414062E-4l0 0c-1.2207031E-4 0 -2.4414062E-4 -1.8310547E-4 -2.4414062E-4 -3.0517578E-4l2.4414062E-4 -165.25955l0 0c0 -9.184479 7.4454956 -16.629944 16.629944 -16.629944z" fill-rule="evenodd"/><path fill="#ffffff" fill-opacity="0.0941" d="m931.86615 504.11795l0 0l0 0c4.4105225 0 8.640381 1.7520752 11.759094 4.8707886c3.1187134 3.118744 4.8707886 7.3486023 4.8707886 11.759125l0 19.118103c0 1.8310547E-4 -1.2207031E-4 3.0517578E-4 -2.4414062E-4 3.0517578E-4l-33.259583 -3.0517578E-4l0 0c-1.2207031E-4 0 -2.4414062E-4 -1.2207031E-4 -2.4414062E-4 -2.4414062E-4l2.4414062E-4 -19.117859l0 0c0 -9.184448 7.4454956 -16.629913 16.629944 -16.629913z" fill-rule="evenodd"/><path fill="#ffffff" fill-opacity="0.0941" d="m888.2913 211.66142l0 0c0 -11.497971 9.320984 -20.818909 20.818909 -20.818909l0 0c5.5215454 0 10.816895 2.1934204 14.721191 6.0977173c3.9042969 3.9042969 6.0977173 9.1996765 6.0977173 14.721191l0 0c0 11.497955 -9.320923 20.818893 -20.818909 20.818893l0 0c-11.497925 0 -20.818909 -9.320938 -20.818909 -20.818893z" fill-rule="evenodd"/><path fill="#ffffff" fill-opacity="0.0941" d="m712.1872 386.9136l0 0c-2.58313 8.914825 -11.904114 14.047668 -20.818909 11.464539l0 0c-4.281067 -1.240448 -7.893982 -4.1307373 -10.044006 -8.035034c-2.1500244 -3.9042969 -2.6610107 -8.502808 -1.4205933 -12.783844l0 0c2.58313 -8.914825 11.904114 -14.047699 20.818909 -11.464569l0 0c8.914856 2.58313 14.0477295 11.904053 11.4646 20.818909z" fill-rule="evenodd"/><path fill="#ffffff" fill-opacity="0.0941" d="m836.2647 283.91425l0 0c18.415833 0 33.34485 14.928986 33.34485 33.34482l0 0c0 8.843628 -3.5131226 17.325012 -9.7664795 23.57837c-6.253357 6.253357 -14.734741 9.7664795 -23.57837 9.7664795l0 0c-18.415833 0 -33.344788 -14.928986 -33.344788 -33.34485l0 0c0 -18.415833 14.928955 -33.34482 33.344788 -33.34482z" fill-rule="evenodd"/><path fill="#ffffff" fill-opacity="0.0941" d="m813.7002 292.70868l0 0c9.801636 -9.008759 24.022583 -11.324127 36.17572 -5.8898926c12.153137 5.4342346 19.909363 17.5766 19.73059 30.888153l-33.341797 -0.44787598z" fill-rule="evenodd"/><path fill="#ffffff" fill-opacity="0.0941" d="m836.2682 296.56314l0 0c11.428162 0 20.692505 9.264374 20.692505 20.692505l0 0c0 5.4880066 -2.1801147 10.751221 -6.06073 14.631836c-3.8805542 3.8805847 -9.143799 6.0606995 -14.631775 6.0606995l0 0c-11.428162 0 -20.692505 -9.264374 -20.692505 -20.692535l0 0c0 -11.428131 9.264343 -20.692505 20.692505 -20.692505z" fill-rule="evenodd"/><path fill="#ffffff" fill-opacity="0.0941" d="m925.7254 199.11703l0 0c5.821594 7.7107086 5.573303 18.41333 -0.59954834 25.84578c-6.1728516 7.4324493 -16.64795 9.641418 -25.296387 5.334442c-8.6484375 -4.3069916 -13.197266 -13.998016 -10.984985 -23.402863c2.2122192 -9.404846 10.604187 -16.05185 20.265747 -16.05185l0 20.818893z" fill-rule="evenodd"/><path fill="#ffffff" fill-opacity="0.0941" d="m907.3644 83.878654l0 0c-10.624634 14.686798 -31.145874 17.981392 -45.83539 7.358696l0 0c-7.054199 -5.101204 -11.792603 -12.795204 -13.172852 -21.389412c-1.38031 -8.594212 0.7106323 -17.384636 5.812744 -24.437485l0 0c10.624695 -14.686794 31.145935 -17.981392 45.83545 -7.358692l0 0c14.689514 10.6227 17.984741 31.140102 7.3600464 45.826893z" fill-rule="evenodd"/><path fill="#ffffff" fill-opacity="0.0941" d="m847.9479 65.31851l0 0c-0.3305664 -16.088425 11.054443 -30.043423 26.884033 -32.952755c15.82959 -2.9093304 31.434082 6.085251 36.84778 21.23943c5.4136963 15.154175 -0.96032715 31.99752 -15.051453 39.773163l-15.861572 -28.733818z" fill-rule="evenodd"/><path fill="#ffffff" fill-opacity="0.0941" d="m566.91235 172.6892l0 0c0 -74.71064 60.56494 -135.27559 135.27557 -135.27559l0 0c35.87732 0 70.28522 14.252209 95.6543 39.621304c25.36908 25.369095 39.621338 59.776978 39.621338 95.65428l0 0c0 74.71065 -60.56494 135.27559 -135.27563 135.27559l0 0c-74.71063 0 -135.27557 -60.56494 -135.27557 -135.27559z" fill-rule="evenodd"/><path fill="#ffffff" fill-opacity="0.0941" d="m599.1709 103.03936l0 0c38.477295 -56.907074 115.801575 -71.84737 172.70868 -33.37008l0 0c27.327698 18.47744 46.196045 47.054 52.454163 79.44316c6.2581177 32.38916 -0.60668945 65.93776 -19.084106 93.2655l0 0c-38.477295 56.90706 -115.801575 71.84737 -172.70868 33.37007l0 0c-56.907043 -38.47728 -71.84735 -115.80159 -33.370056 -172.70865z" fill-rule="evenodd"/><path fill="#ffffff" fill-opacity="0.0941" d="m589.1371 247.39746l0 0c-27.312927 -41.5578 -29.621948 -94.75075 -6.0128174 -138.51898c23.60913 -43.76822 69.32922 -71.05369 119.05896 -71.05369l0 135.27559z" fill-rule="evenodd"/><path fill="#599191" d="m634.6362 126.97012l0 0c25.248535 -37.320534 75.970825 -47.10681 113.29132 -21.858269l0 0c17.921997 12.124779 30.293335 30.872429 34.39258 52.118675c4.099182 21.246246 -0.40948486 43.250717 -12.534302 61.17267l0 0c-25.248535 37.320526 -75.970764 47.10681 -113.29132 21.858261l0 0c-37.320557 -25.248535 -47.10681 -75.970795 -21.858276 -113.291336z" fill-rule="evenodd"/><path fill="#ffffff" fill-opacity="0.0941" d="m584.13855 106.620865l0 0c23.919128 -42.73689 69.06952 -69.20793 118.04468 -69.20793l0 135.27559z" fill-rule="evenodd"/><path fill="#ffffff" fill-opacity="0.0941" d="m680.3448 388.2298l0 0c-2.781372 -7.2862854 -0.18444824 -15.528687 6.2713623 -19.904572c6.4558716 -4.375885 15.073914 -3.73526 20.811768 1.5470886c5.737854 5.282318 7.0875854 13.818085 3.2594604 20.613068c-3.828186 6.7949524 -11.828125 10.063293 -19.319092 7.8927307l4.677124 -16.141724z" fill-rule="evenodd"/></g></svg>